<svg width="64" height="64" viewBox="0 0 64 64" fill="none" xmlns="http://www.w3.org/2000/svg">
<path d="M43.25 25.6685C36.8363 19.9315 27.1635 19.9315 20.75 25.6685C19.9782 26.3589 19.9121 27.5441 20.6025 28.316L20.6026 28.3161C21.293 29.0879 22.4782 29.1539 23.25 28.4636L23.2501 28.4635C28.2383 24.0015 35.7617 24.0015 40.7501 28.4635C41.5218 29.1539 42.7071 29.0879 43.3975 28.316C44.0878 27.5442 44.0218 26.3589 43.25 25.6685Z" fill="url(#paint0_linear_84_1202)"/>
<path d="M37.8394 30.925C36.1661 29.5864 34.1444 28.8789 31.9922 28.8789C29.8591 28.8789 27.7819 29.6118 26.1432 30.9424C25.3394 31.5952 25.217 32.776 25.8697 33.5798L25.8699 33.5799C26.5226 34.3838 27.7035 34.5061 28.5072 33.8534C29.4937 33.0523 30.6987 32.6289 31.9921 32.6289C33.2836 32.6289 34.4954 33.0523 35.4966 33.8531C36.3052 34.5 37.4851 34.3689 38.132 33.5603C38.779 32.7518 38.6479 31.5719 37.8394 30.925Z" fill="url(#paint1_linear_84_1202)"/>
<path d="M32 40.125C33.0355 40.125 33.875 39.2855 33.875 38.25C33.875 37.2145 33.0355 36.375 32 36.375C30.9645 36.375 30.125 37.2145 30.125 38.25C30.125 39.2855 30.9645 40.125 32 40.125Z" fill="url(#paint2_linear_84_1202)"/>
<path d="M45.75 0H18.25C15.1484 0 12.625 2.52338 12.625 5.625V58.375C12.625 61.4766 15.1484 64 18.25 64H45.75C48.8516 64 51.375 61.4766 51.375 58.375V5.625C51.375 2.52338 48.8516 0 45.75 0ZM36.8985 3.75L35.6485 7.5H28.3514L27.1014 3.75H36.8985ZM47.625 58.375C47.625 59.4089 46.7839 60.25 45.75 60.25H18.25C17.2161 60.25 16.375 59.4089 16.375 58.375V5.625C16.375 4.59113 17.2161 3.75 18.25 3.75H23.1485L25.2211 9.968C25.4765 10.7336 26.1929 11.25 27 11.25H37C37.807 11.25 38.5235 10.7336 38.7788 9.968L40.8515 3.75H45.75C46.7839 3.75 47.625 4.59113 47.625 5.625V58.375Z" fill="url(#paint3_linear_84_1202)"/>
<path d="M35.75 52.75H28.25C27.2145 52.75 26.375 53.5895 26.375 54.625C26.375 55.6605 27.2145 56.5 28.25 56.5H35.75C36.7855 56.5 37.625 55.6605 37.625 54.625C37.625 53.5895 36.7855 52.75 35.75 52.75Z" fill="url(#paint4_linear_84_1202)"/>
<defs>
<linearGradient id="paint0_linear_84_1202" x1="32" y1="21.3657" x2="31.3485" y2="28.8846" gradientUnits="userSpaceOnUse">
<stop stop-color="#2E9ADB"/>
<stop offset="1" stop-color="#55B570"/>
</linearGradient>
<linearGradient id="paint1_linear_84_1202" x1="31.9966" y1="28.8789" x2="31.4004" y2="34.2062" gradientUnits="userSpaceOnUse">
<stop stop-color="#2E9ADB"/>
<stop offset="1" stop-color="#55B570"/>
</linearGradient>
<linearGradient id="paint2_linear_84_1202" x1="32" y1="36.375" x2="31.0513" y2="39.8673" gradientUnits="userSpaceOnUse">
<stop stop-color="#2E9ADB"/>
<stop offset="1" stop-color="#55B570"/>
</linearGradient>
<linearGradient id="paint3_linear_84_1202" x1="32" y1="2.99976e-06" x2="8.09619" y2="53.2746" gradientUnits="userSpaceOnUse">
<stop stop-color="#2E9ADB"/>
<stop offset="1" stop-color="#55B570"/>
</linearGradient>
<linearGradient id="paint4_linear_84_1202" x1="32" y1="52.75" x2="31.6632" y2="56.4695" gradientUnits="userSpaceOnUse">
<stop stop-color="#2E9ADB"/>
<stop offset="1" stop-color="#55B570"/>
</linearGradient>
</defs>
</svg>
