<svg width="64" height="64" viewBox="0 0 64 64" fill="none" xmlns="http://www.w3.org/2000/svg">
<path d="M58.0918 14.0581C51.374 14.0581 45.9087 8.59277 45.9087 1.875C45.9087 0.839355 45.0688 0 44.0337 0H33.9917C32.9561 0 32.1167 0.839355 32.1167 1.875V43.0459C32.1167 46.9951 28.9038 50.208 24.9541 50.208C21.0049 50.208 17.792 46.9951 17.792 43.0459C17.792 39.0962 21.0049 35.8833 24.9541 35.8833C25.9897 35.8833 26.8291 35.0439 26.8291 34.0083V23.9663C26.8291 22.9312 25.9897 22.0913 24.9541 22.0913C13.3999 22.0913 4 31.4917 4 43.0459C4 54.6001 13.3999 64 24.9541 64C36.5083 64 45.9087 54.6001 45.9087 43.0459V24.8218C49.6406 26.8115 53.793 27.8501 58.0918 27.8501C59.1274 27.8501 59.9668 27.0107 59.9668 25.9751V15.9331C59.9668 14.8979 59.1274 14.0581 58.0918 14.0581ZM56.2168 24.0225C52.2139 23.6895 48.4126 22.291 45.1284 19.9287C44.5576 19.5176 43.8047 19.4609 43.1782 19.7822C42.5522 20.1025 42.1587 20.7471 42.1587 21.4507V43.0459C42.1587 52.5322 34.4404 60.25 24.9541 60.25C15.4678 60.25 7.75 52.5322 7.75 43.0459C7.75 34.1929 14.4717 26.8799 23.0791 25.9429V32.2944C17.9521 33.186 14.042 37.6675 14.042 43.0459C14.042 49.063 18.937 53.9585 24.9541 53.9585C30.9717 53.9585 35.8667 49.063 35.8667 43.0459V3.75H42.2681C43.127 11.04 48.9268 16.8398 56.2168 17.6987V24.0225Z" fill="url(#paint0_linear_84_1187)"/>
<defs>
<linearGradient id="paint0_linear_84_1187" x1="31.9834" y1="2.99976e-06" x2="13.851" y2="58.3669" gradientUnits="userSpaceOnUse">
<stop stop-color="#2E9ADB"/>
<stop offset="1" stop-color="#55B570"/>
</linearGradient>
</defs>
</svg>
