<svg width="64" height="64" viewBox="0 0 64 64" fill="none" xmlns="http://www.w3.org/2000/svg">
<path d="M45.75 0H18.25C15.1484 0 12.625 2.52338 12.625 5.625V58.375C12.625 61.4766 15.1484 64 18.25 64H45.75C48.8516 64 51.375 61.4766 51.375 58.375V5.625C51.375 2.52338 48.8516 0 45.75 0ZM36.8985 3.75L35.6485 7.5H28.3514L27.1014 3.75H36.8985ZM47.625 58.375C47.625 59.4089 46.7839 60.25 45.75 60.25H18.25C17.2161 60.25 16.375 59.4089 16.375 58.375V5.625C16.375 4.59113 17.2161 3.75 18.25 3.75H23.1485L25.2211 9.968C25.4765 10.7336 26.1929 11.25 27 11.25H37C37.807 11.25 38.5235 10.7336 38.7788 9.968L40.8515 3.75H45.75C46.7839 3.75 47.625 4.59113 47.625 5.625V58.375Z" fill="url(#paint0_linear_84_1192)"/>
<path d="M35.75 52.75H28.25C27.2145 52.75 26.375 53.5895 26.375 54.625C26.375 55.6605 27.2145 56.5 28.25 56.5H35.75C36.7855 56.5 37.625 55.6605 37.625 54.625C37.625 53.5895 36.7855 52.75 35.75 52.75Z" fill="url(#paint1_linear_84_1192)"/>
<g clip-path="url(#clip0_84_1192)">
<path d="M41.5264 39.1065L36.9282 34.5081C37.7095 33.2643 38.1629 31.7942 38.1629 30.2165C38.1629 25.7531 34.5446 22.1353 30.0813 22.1353C25.618 22.1353 22 25.7531 22 30.2165C22 34.6801 25.6179 38.2977 30.0813 38.2977C31.7982 38.2977 33.3885 37.7609 34.6971 36.8488L39.2405 41.3926C39.5562 41.7079 39.9701 41.865 40.3834 41.865C40.7973 41.865 41.2107 41.7079 41.5269 41.3926C42.1578 40.761 42.1578 39.7379 41.5264 39.1065ZM30.0813 35.6794C27.0645 35.6794 24.6187 33.2338 24.6187 30.2169C24.6187 27.2 27.0645 24.7541 30.0813 24.7541C33.0982 24.7541 35.5439 27.2 35.5439 30.2169C35.5439 33.2338 33.0982 35.6794 30.0813 35.6794Z" fill="url(#paint2_linear_84_1192)"/>
</g>
<defs>
<linearGradient id="paint0_linear_84_1192" x1="32" y1="2.99976e-06" x2="8.09619" y2="53.2746" gradientUnits="userSpaceOnUse">
<stop stop-color="#2E9ADB"/>
<stop offset="1" stop-color="#55B570"/>
</linearGradient>
<linearGradient id="paint1_linear_84_1192" x1="32" y1="52.75" x2="31.6632" y2="56.4695" gradientUnits="userSpaceOnUse">
<stop stop-color="#2E9ADB"/>
<stop offset="1" stop-color="#55B570"/>
</linearGradient>
<linearGradient id="paint2_linear_84_1192" x1="32" y1="22.1353" x2="27.0668" y2="40.5429" gradientUnits="userSpaceOnUse">
<stop stop-color="#2E9ADB"/>
<stop offset="1" stop-color="#55B570"/>
</linearGradient>
<clipPath id="clip0_84_1192">
<rect width="20" height="20" fill="white" transform="translate(22 22)"/>
</clipPath>
</defs>
</svg>
