<svg width="64" height="64" viewBox="0 0 64 64" fill="none" xmlns="http://www.w3.org/2000/svg">
<g clip-path="url(#clip0_84_1169)">
<path d="M36.3208 63.875H26.0517C24.3364 63.875 22.9411 62.4824 22.9411 60.7705V37.6533H16.9499C15.2347 37.6533 13.8394 36.2603 13.8394 34.5488V24.6431C13.8394 22.9312 15.2347 21.5386 16.9499 21.5386H22.9411V16.5781C22.9411 11.6597 24.4886 7.4751 27.4157 4.47754C30.356 1.46631 34.4651 -0.125 39.2987 -0.125L47.1305 -0.112305C48.8428 -0.109375 50.2356 1.2832 50.2356 2.99219V12.1895C50.2356 13.9014 48.8408 15.2939 47.126 15.2939L41.8531 15.2959C40.2449 15.2959 39.8354 15.6177 39.7479 15.7163C39.6035 15.8799 39.4318 16.3423 39.4318 17.6191V21.5381H46.7298C47.2792 21.5381 47.8115 21.6733 48.2689 21.9282C49.2557 22.4785 49.8692 23.519 49.8692 24.6436L49.8653 34.5493C49.8653 36.2603 48.47 37.6528 46.7547 37.6528H39.4318V60.7705C39.4318 62.4824 38.036 63.875 36.3208 63.875ZM26.7004 60.1231H35.672V35.9736C35.672 34.8306 36.604 33.9009 37.7488 33.9009H46.106L46.1094 25.2905H37.7484C36.6035 25.2905 35.672 24.3608 35.672 23.2178V17.6191C35.672 16.1533 35.8213 14.4863 36.9299 13.2334C38.2694 11.7188 40.3805 11.5439 41.8521 11.5439L46.4763 11.542V3.63867L39.2958 3.62695C31.5277 3.62695 26.7004 8.58984 26.7004 16.5781V23.2178C26.7004 24.3604 25.7689 25.2905 24.6241 25.2905H17.5987V33.9009H24.6241C25.7689 33.9009 26.7004 34.8306 26.7004 35.9736V60.1231ZM47.1231 3.63965H47.1236H47.1231Z" fill="url(#paint0_linear_84_1169)"/>
</g>
<defs>
<linearGradient id="paint0_linear_84_1169" x1="32.0375" y1="-0.124997" x2="7.14484" y2="51.9836" gradientUnits="userSpaceOnUse">
<stop stop-color="#2E9ADB"/>
<stop offset="1" stop-color="#55B570"/>
</linearGradient>
<clipPath id="clip0_84_1169">
<rect width="64" height="64" fill="white"/>
</clipPath>
</defs>
</svg>
